<?xml version="1.0" encoding="UTF-8"?><svg id="Layer_1" xmlns="http://www.w3.org/2000/svg" xmlns:xlink="http://www.w3.org/1999/xlink" viewBox="0 0 500 568.17"><defs><style>.cls-1{fill:url(#linear-gradient);}.cls-1,.cls-2{stroke-width:0px;}.cls-2{fill:#0c2187;}</style><linearGradient id="linear-gradient" x1="431.12" y1="428.78" x2="80.38" y2="144.76" gradientUnits="userSpaceOnUse"><stop offset="0" stop-color="#04fcff"/><stop offset="1" stop-color="#c232cf"/></linearGradient></defs><path class="cls-2" d="m470.67,156.57v254.99l-14.39,8.34-6.42,3.67-1.83,1.01-25.31,14.58-2.93,1.74-6.79,3.94-3.12,1.83-38.6,22.28-11.92,6.79v.09l-2.84,1.56-67.76,39.24-3.85,2.2q0,.09-.09.09l-12.38,7.06-22.56,13.02-11.74-6.79h-.09l-5.14-3.03-1.47-.82-14.58-8.34-2.2-1.28-5.23-3.03-1.19-.73-1.19-.64-16.59-9.63-5.23-3.03-.92-.55-16.87-9.72-2.29-1.28-5.32-3.12-.73-.37-1.65-.92-17.06-9.9-5.5-3.12-.46-.28-17.51-10.18-2.29-1.28-5.5-3.21-.18-.09-2.29-1.28-18.43-10.64-5.78-3.39-18.06-10.45-2.66-1.56h-.09l-5.59-3.3h-.09l-.27-.18-2.48-1.47-18.25-10.45-5.59-3.21-.28-.18v-254.99l8.34-4.86h.09l45.48-26.32,11.37-6.51,2.66-1.56,109.57-63.27h.09l2.2-1.38,8.71-4.95,22.37-12.93,9.9-5.68,8.07,4.68h.09l16.96,9.81,5.87,3.48h.09l1.47.82,16.23,9.35,2.57,1.47,5.87,3.39,1.19.73,1.47.83,18.61,10.73,5.69,3.3h.18l.73.46,18.25,10.64,2.57,1.47,5.59,3.21h.09l.37.27h.09l2.11,1.19,19.07,11.09,5.32,3.12h.09l18.71,10.82,2.29,1.28,4.77,2.84.37.18h.09l2.11,1.19,17.88,10.36,4.22,2.38.73.46,15.59,9.08,2.11,1.19h.09l3.49,2.02,1.1.64,2.02,1.19,6.6,3.76Z"/><path class="cls-1" d="m462.05,151.62l-1.1-.64-3.49-2.02h-.09l-2.11-1.19c-28.15,5.78-58.77,8.99-93.62,9.81-44.84-.92-85.09,0-122.41,18.52-38.42,19.16-64.64,46.49-90.04,73.08-31.36,32.83-63.91,66.84-120.12,83.62v7.24l.46-.18c58.86-17.15,92.24-52.08,124.61-85.91v-.09c24.94-26.04,50.61-52.91,88.12-71.61,36.03-17.88,75.46-18.61,119.47-17.88,37.68-.83,70.6-4.49,100.68-11.19l1.65-.37-2.02-1.19Zm7.52,207.86c-8.71,7.98-16.32,16.78-21.91,25.67-6.05,9.08-11.64,18.52-18.34,29.89-5.59,9.44-11.37,19.25-17.7,28.88l-1.74,2.75,3.12-1.83,6.79-3.94,2.93-1.74c4.4-6.97,8.53-14.03,12.47-20.63l.18-.37c6.14-10.36,11.92-20.08,18.06-29.34,4.31-6.97,10.27-14.21,17.24-20.91v-9.44l-1.1,1.01ZM308.29,62.86l-1.19-.73-5.87-3.39-2.57-1.47c-6.97.27-13.94.46-20.72.73l-3.76.09c-32.09.18-78.21,5.23-116.17,28.42-35.49,21.36-60.52,48.32-81.15,71.89-14.85,16.87-29.98,34.29-47.77,49.7v8.99l1.01-.83c19.53-16.32,35.94-35.12,51.9-53.27,20.26-23.29,44.93-49.79,79.59-70.69,36.58-22.28,81.42-27.14,112.69-27.32l3.39-.09c8.43-.28,16.96-.64,25.67-1.01l6.42-.18-1.47-.83Zm53.64,30.9h-.09l-.37-.27h-.09l-5.59-3.21-2.57-1.47c-15.5,1.1-31.91,1.74-50.15,2.11-34.75-.27-70.88,1.19-99.67,13.3-47.95,21-76.29,54.92-103.7,87.66-20.45,24.48-41.44,49.7-70.6,68.86v8.16l.83-.55c31.54-19.99,53.64-46.49,75-72.07,26.86-32.18,54.65-65.47,101.14-85.82,27.69-11.55,62.9-12.93,97.1-12.65,22.47-.46,40.99-1.38,58.41-2.66l2.48-.18-2.11-1.19Zm52.81,30.53h-.09l-.37-.18-4.77-2.84-2.29-1.28c-23.2,2.75-49.42,4.58-74.18,4.95-29.53-.37-69.87-.92-101.69,11-51.26,21.18-79.95,54.28-107.74,86.37-25.12,29.07-51.26,59.14-94.53,79.68v7.52l.64-.28c45.85-21.09,72.8-52.17,98.84-82.25l.28-.28.09-.09c27.14-31.36,55.29-63.82,104.99-84.26,30.44-11.46,70.05-10.91,99.12-10.54,27.78-.46,56.85-2.57,81.88-5.96l1.93-.37-2.11-1.19Zm55.38,159.73c-7.61,2.48-15.95,5.23-24.21,8.25-13.75,4.86-26.77,11.64-38.42,20.45-24.39,18.43-41.08,40.07-57.4,61.16l-.46.55c-10.82,13.94-22,28.33-35.21,41.35-39.24,41.44-86.92,62.9-154.77,69.69l-2.2.27,1.65.92.73.37,5.32,3.12,2.29,1.28c65.1-7.61,113.33-30.26,151.84-70.79,13.75-13.57,25.12-28.33,36.22-42.64,17.6-22.65,35.67-46.03,62.99-64.83,7.7-5.32,16.05-9.54,24.85-12.74,8.8-3.21,18.25-6.42,27.32-9.35v-7.24l-.55.18Zm.18-107.28c-26.41,5.87-53.45,9.26-82.7,10.27-43.92.18-83.35,1.83-120.39,21-17.88,9.17-33.19,20.17-47.22,31.82-14.03,11.74-26.68,24.11-39.15,36.4-36.49,35.67-74.09,72.62-141.85,86.46-3.49.46-6.79.92-9.9,1.28v6.79h.09c3.48-.37,6.97-.73,10.91-1.28,69.96-14.4,108.38-51.99,145.61-88.48,24.57-24.11,50.06-49.05,84.63-66.93,35.76-18.43,74.27-19.99,117.45-20.17,29.53-1.1,56.67-4.49,82.89-10.27v-6.97l-.37.09Zm-.36,139.1c-16.05,7.89-27.05,15.13-34.93,22.83-18.15,17.97-31.82,38.33-45.02,57.95l-.18.18c-12.38,18.43-24.94,37.14-41.63,54.37-16.6,17.24-37.23,33.01-65.65,45.39-21.09,8.44-45.11,14.21-73.26,17.51l-2.2.27,1.19.64,1.19.73,5.23,3.03,2.2,1.28c26.13-3.48,48.41-9.17,68.31-17.15,58.78-25.58,84.91-64.55,110.3-102.24,13.02-19.35,26.5-39.43,44.38-57.12,6.97-6.88,16.69-13.29,30.81-20.36v-7.7l-.73.37Zm.36-110.21c-10.82,2.2-22.37,4.13-34.11,5.5-11.19,1.56-22.92,2.38-35.39,3.3l-1.28.09h-.18c-21.55,1.47-43.92,3.03-63.91,8.53-53.45,17.88-85.91,49.51-117.45,80.14-18.34,17.88-37.41,36.31-60.43,51.71-43.74,30.35-82.89,37.78-128.46,39.52v6.88c46.86-1.83,87.29-9.54,132.31-40.8,23.38-15.5,42.55-34.2,61.16-52.17l.36-.46c30.9-29.98,62.81-60.97,114.52-78.3,19.16-5.23,41.08-6.79,62.53-8.25,12.38-.83,25.22-1.74,37.04-3.39,11.55-1.38,22.83-3.21,33.65-5.32v-7.06l-.37.09Zm0,51.53c-7.06,1.74-14.67,3.39-21.45,4.86-22.19,4.86-45.2,9.9-62.99,19.25h-.09c-32.09,18.34-53.92,42.45-75.1,65.74-5.23,5.87-10.27,11.28-15.5,16.87-51.99,58.04-109.39,86.46-186.13,92.33l-2.38.18,2.29,1.28.18.09,5.5,3.21,2.29,1.28c75-7.06,131.58-36.13,183.29-93.8,4.77-5.04,9.72-10.45,14.39-15.59l1.47-1.65c20.72-22.74,42.18-46.3,72.99-64,17.05-8.89,39.61-13.85,61.34-18.52l1.1-.28c6.69-1.47,13.02-2.75,19.16-4.31v-7.06l-.37.09Zm0-25.77c-22.1,4.68-46.58,8.8-74.54,12.56-10.09,1.38-20.08,3.58-29.62,7.15-45.39,17.05-74.45,46.12-105.08,76.84-40.89,40.99-83.26,83.44-169.17,95.17-10.55,1.1-22.1,1.83-36.31,2.2l-2.38.09,2.48,1.47.27.18h.09l5.59,3.3h.09l2.66,1.56c10.36-.46,19.44-1.1,28.33-2.02,88.39-12.1,131.49-55.38,173.21-97.19,29.89-29.89,58.22-58.32,101.5-74.82,9.63-3.67,19.71-5.96,29.89-7.24,26.96-3.67,51.07-7.7,73.35-12.38v-6.97l-.37.09Z"/></svg>
